<?xml version="1.0" standalone="no"?><!DOCTYPE svg PUBLIC "-//W3C//DTD SVG 1.1//EN" "http://www.w3.org/Graphics/SVG/1.1/DTD/svg11.dtd"><svg t="1525357074286" class="icon" style="" viewBox="0 0 1024 1024" version="1.1" xmlns="http://www.w3.org/2000/svg" p-id="3355" xmlns:xlink="http://www.w3.org/1999/xlink" width="10" height="10"><defs><style type="text/css"></style></defs><path fill="#d2d2d2" d="M339.651042 341.097655 469.110756 58.828865C491.707678 8.534076 527.371795 8.880086 548.770042 59.60466L679.364582 341.097655M679.452297 340.474423 964.078942 371.359074C1018.894963 377.308079 1029.586705 411.333594 987.95719 447.35929L772.020879 666.738278M771.548333 663.5201 830.440373 945.270172C841.721615 999.241649 812.665359 1019.924563 765.538658 991.465092L517.688802 846.872395M517.485225 846.453572 267.723625 989.528794C219.879795 1016.935996 191.230298 995.693225 203.733911 942.078609L269.450995 660.288365M270.301116 660.710236 28.962399 447.35929C-12.667117 411.333594-1.975373 377.308079 52.840647 371.359074L338.533536 342.523883 336.275211 353.151657 338.788109 341.437007 679.762863 341.437007 771.253818 663.747471 517.557926 846.731194 270.278963 660.81351 270.301116 660.710236Z" p-id="3356"></path></svg>